<svg xmlns="http://www.w3.org/2000/svg" viewBox="0 0 24 24" width="24" height="24" fill="currentColor">
    <path d="M12 0C5.37 0 0 5.37 0 12c0 5.3 3.438 9.8 8.207 11.387.6.113.793-.26.793-.577v-2.234c-3.338.726-4.042-1.61-4.042-1.61-.546-1.387-1.333-1.756-1.333-1.756-1.09-.746.083-.73.083-.73 1.205.084 1.838 1.237 1.838 1.237 1.07 1.834 2.807 1.304 3.492.997.108-.774.42-1.304.763-1.604-2.665-.3-5.467-1.333-5.467-5.93 0-1.31.468-2.382 1.236-3.222-.123-.303-.535-1.523.117-3.176 0 0 1.008-.322 3.3 1.23a11.52 11.52 0 0 1 3.003-.404c1.02.005 2.045.137 3.003.404 2.292-1.552 3.3-1.23 3.3-1.23.653 1.653.241 2.873.118 3.176.77.84 1.236 1.912 1.236 3.222 0 4.61-2.807 5.625-5.48 5.92.432.372.816 1.102.816 2.222v3.293c0 .32.192.694.8.576C20.565 21.796 24 17.3 24 12c0-6.63-5.37-12-12-12z"/>
</svg>